PathFileType  4	(X/Y/Z) C:\Users\antoi\Documents\MyRepositories\mobilecap\ResultsAnalysis
DataRate	CameraRate	NumFrames	NumMarkers	Units	OrigDataRate	OrigDataStartFrame	OrigNumFrames
100.0	100.0	5	51	mm	100.0	350	1399
Frame#	Time	r_knee			r_shank_antsup			r_ankle			r_calc			r_5meta			r_toe			L_knee			L_shank_antsup			L_ankle			L_calc			L_5meta			L_toe			r_sh2			r_sh3			r_sh4			L_sh2			L_sh3			r_thigh1			r_thigh2			r_thigh3			r_thigh4			r_thigh5			L_thigh1			L_thigh2			L_thigh3			L_thigh4			r.ASIS			r.PSIS			L.ASIS			L.PSIS			C7			R_Shoulder			L_Shoulder			R_Sternum			L_Sternum			R_humerus			R_elbow_med			R_elbow_lat			R_forearm			R_wrist_radius			R_wrist_ulna			L_humerus			L_elbow_med			L_elbow_lat			L_forearm			L_wrist_radius			L_wrist_ulna			R_HJC			L_HJC			R_HJC_reg			L_HJC_reg			
		X1	Y1	Z1	X2	Y2	Z2	X3	Y3	Z3	X4	Y4	Z4	X5	Y5	Z5	X6	Y6	Z6	X7	Y7	Z7	X8	Y8	Z8	X9	Y9	Z9	X10	Y10	Z10	X11	Y11	Z11	X12	Y12	Z12	X13	Y13	Z13	X14	Y14	Z14	X15	Y15	Z15	X16	Y16	Z16	X17	Y17	Z17	X18	Y18	Z18	X19	Y19	Z19	X20	Y20	Z20	X21	Y21	Z21	X22	Y22	Z22	X23	Y23	Z23	X24	Y24	Z24	X25	Y25	Z25	X26	Y26	Z26	X27	Y27	Z27	X28	Y28	Z28	X29	Y29	Z29	X30	Y30	Z30	X31	Y31	Z31	X32	Y32	Z32	X33	Y33	Z33	X34	Y34	Z34	X35	Y35	Z35	X36	Y36	Z36	X37	Y37	Z37	X38	Y38	Z38	X39	Y39	Z39	X40	Y40	Z40	X41	Y41	Z41	X42	Y42	Z42	X43	Y43	Z43	X44	Y44	Z44	X45	Y45	Z45	X46	Y46	Z46	X47	Y47	Z47	X48	Y48	Z48	X49	Y49	Z49	X50	Y50	Z50	X51	Y51	Z51	

350	3.49000000	-261.41846	487.03920	-423.99591	-199.49377	404.50487	-424.76956	-300.01794	91.96946	-418.50745	-360.89877	55.18968	-461.80885	-174.44998	49.45859	-387.98884	-147.91079	85.50304	-441.37284	-264.91714	484.87556	-824.45181	-193.96131	411.95995	-812.69306	-292.49611	95.20744	-805.14039	-360.76855	48.69220	-755.28079	-184.11344	44.30869	-837.99827	-139.83283	79.37491	-789.57584	-217.83104	291.94926	-421.29384	-265.43573	413.57688	-388.32222	-288.98801	302.22991	-380.62509	-273.88894	433.38796	-852.07605	-291.56116	313.04802	-858.06997	-521.66180	568.05437	-429.98995	-413.03336	564.01784	-439.83808	-390.68139	512.65687	-397.76657	-526.85468	457.00016	-402.24448	-410.00577	457.99721	-409.97780	-494.11804	574.18169	-801.94924	-355.80036	576.29712	-795.67847	-497.88816	476.68420	-849.75587	-363.86234	473.58225	-833.55127	-516.51118	577.48746	-491.23885	-706.67533	630.40714	-578.97516	-520.80632	581.24819	-755.17871	-703.20176	631.04560	-670.22247	-463.99734	1028.89029	-601.91372	-395.21013	992.57873	-442.36220	-370.71627	984.80653	-741.82239	-361.05661	923.44913	-570.54948	-355.04439	924.88864	-612.77821	-403.21415	864.46164	-375.36320	-523.33776	686.27852	-405.86347	-521.70320	697.87646	-331.73241	-425.92678	708.49832	-330.53946	-277.58275	733.58627	-389.55648	-279.01576	687.22555	-372.83128	-377.61629	852.84668	-816.22945	-490.07892	686.63692	-791.24052	-470.68315	694.27120	-875.09781	-395.59526	711.36581	-870.94196	-247.49123	745.27001	-807.08820	-247.01133	697.36269	-824.20591	-603.72590	498.86273	-523.24558	-602.74461	501.76612	-712.78328	-600.04183	506.44964	-532.32445	-593.41522	507.66718	-706.43445	
351	3.50000000	-256.96062	486.11297	-421.07038	-195.94139	402.80586	-421.91712	-299.66516	91.42198	-418.27703	-360.58458	55.27144	-461.63877	-174.22329	48.36856	-388.14272	-147.64561	85.09557	-440.80072	-260.50340	484.10878	-826.62296	-190.28951	410.20246	-814.92984	-292.17559	94.58823	-805.52234	-360.53560	48.73983	-755.18112	-184.18628	43.28095	-837.96375	-139.56342	78.90559	-790.65855	-215.42903	290.42644	-419.12642	-262.10880	412.34241	-386.00153	-286.49618	301.13894	-378.75624	-270.25128	432.51149	-853.80136	-289.29700	312.40440	-859.64046	-516.13558	570.04822	-428.91025	-407.45023	564.40459	-438.18410	-385.55291	512.79160	-396.35184	-522.52061	459.61080	-400.74497	-405.51356	458.72512	-407.78304	-488.47096	576.74437	-800.40651	-349.81335	576.98432	-795.74829	-493.70777	479.98183	-849.63563	-359.61753	474.89608	-834.92860	-508.98135	578.17727	-491.36080	-696.96984	634.76442	-578.15006	-513.40916	583.33403	-754.27855	-693.77734	635.53686	-669.47842	-451.64750	1028.31976	-602.02437	-381.83032	993.46313	-443.46676	-358.09137	984.36880	-741.37278	-348.79069	922.76007	-570.84998	-341.98246	924.91107	-612.93482	-390.12532	865.95938	-375.51711	-512.24818	688.77821	-403.62321	-509.89782	700.73405	-329.82238	-413.77334	710.58680	-329.61443	-266.12451	734.72235	-390.00768	-267.43620	688.43183	-372.94571	-364.91964	852.47972	-815.89200	-477.98940	685.91486	-791.80904	-459.00744	694.84103	-875.64746	-383.71254	711.96898	-871.62477	-235.79593	746.03807	-807.80585	-235.12603	698.45628	-825.60469	-597.04838	501.17083	-523.15892	-596.18753	504.93846	-712.68082	-593.38798	509.51626	-532.14343	-587.32549	510.98683	-705.61591	
352	3.51000000	-252.26751	485.04884	-418.07372	-192.29210	400.96453	-418.82329	-299.27846	90.67511	-418.13505	-360.24087	55.31944	-461.56227	-174.04531	47.62178	-388.06753	-147.25093	84.40715	-440.45236	-255.96907	483.28852	-828.30919	-186.13939	408.37526	-816.95231	-291.62462	94.00606	-805.79616	-360.38884	48.87564	-755.00555	-183.94718	42.45638	-838.30367	-139.10620	77.94355	-791.03271	-212.85390	288.73652	-416.87451	-258.62496	410.89530	-383.38869	-284.12242	299.82222	-376.67783	-265.97528	431.30726	-855.24292	-286.39522	311.64444	-861.02147	-510.81059	571.69276	-427.51933	-402.40586	564.11942	-436.29769	-380.47715	512.19118	-395.24723	-518.19877	461.69190	-398.84563	-401.17808	459.06524	-405.53989	-482.59256	578.87384	-799.23191	-343.72514	577.66814	-795.54092	-489.00103	483.16869	-850.29957	-354.93598	476.24426	-836.22186	-501.40911	578.64480	-491.06795	-687.40707	639.26588	-577.15085	-506.02171	584.81723	-753.07099	-684.41506	640.21819	-668.77286	-439.37752	1028.24944	-602.25043	-368.80226	994.16218	-444.68304	-345.83815	984.11734	-741.19886	-336.55818	922.28036	-571.28935	-331.10142	924.76348	-614.92217	-377.02103	867.53679	-375.78869	-501.26774	691.37053	-401.93331	-498.30090	703.94322	-327.87911	-401.80341	713.10103	-328.72352	-254.82827	736.00121	-390.57411	-256.05509	689.89180	-373.11757	-352.71718	852.24059	-815.61837	-466.37115	685.58680	-792.49750	-447.83862	695.52679	-876.15759	-372.38804	712.61690	-872.12888	-224.53483	746.95423	-808.81024	-223.65675	699.50009	-826.76341	-590.77991	503.52794	-522.70285	-589.92397	507.88136	-712.21199	-586.93809	512.25630	-531.65621	-581.29309	514.05287	-704.55291	
353	3.52000000	-247.69372	483.77553	-415.16221	-188.61667	399.15685	-415.65874	-299.08391	90.06978	-417.92911	-360.01100	55.32723	-461.49486	-173.86174	47.14446	-387.70337	-146.86113	83.76774	-440.31685	-251.53737	482.26515	-829.48557	-181.55780	406.46019	-818.44922	-290.98564	93.41701	-805.70673	-360.34604	49.14238	-754.90563	-183.53340	41.89752	-838.86371	-138.60012	76.85938	-790.89316	-210.26977	286.99525	-414.82103	-255.06339	409.37547	-380.66981	-281.93924	298.39095	-375.04247	-261.14408	429.95382	-856.80463	-282.82538	310.56218	-862.05015	-505.03198	573.28127	-426.22806	-397.24228	563.93095	-433.98586	-375.71467	511.45614	-393.88059	-514.16762	463.38428	-397.11076	-397.15568	459.13038	-403.63974	-476.39885	580.73009	-798.34383	-337.52471	578.21404	-795.45528	-484.04441	486.02870	-850.93417	-350.18812	477.31365	-837.16256	-494.10067	579.24816	-490.64856	-678.08726	643.86713	-575.97041	-498.30879	585.61902	-750.60958	-675.10078	645.15798	-668.05788	-427.29591	1028.82887	-602.78695	-356.12191	994.82893	-446.01820	-334.05300	984.04911	-741.15494	-324.75018	922.07806	-572.00624	-321.82087	924.29923	-617.53898	-363.99051	869.05821	-376.38159	-490.57407	693.89917	-400.37500	-486.93581	707.18722	-326.26518	-390.03815	716.12719	-328.02437	-243.79505	737.42781	-391.26830	-244.98804	691.55319	-373.33717	-341.22643	852.24367	-815.40210	-455.31595	685.42098	-793.03654	-437.28961	696.23538	-876.50777	-361.77474	713.38358	-872.54332	-213.87985	748.05140	-810.05580	-212.80315	700.63010	-828.06199	-585.02968	506.14309	-521.57452	-583.72760	510.58955	-711.07899	-580.50608	514.89027	-531.12398	-574.94420	517.28834	-702.66524	
354	3.53000000	-243.31028	482.49648	-412.59065	-184.80874	397.29672	-412.81601	-299.07092	89.74654	-417.67876	-359.93510	55.32022	-461.40177	-173.65462	46.71690	-387.21102	-146.65881	83.38171	-440.18788	-244.54690	482.36397	-831.45105	-176.65566	404.49924	-819.37537	-290.39221	92.79449	-805.36335	-360.25328	49.39304	-754.87614	-183.23325	41.28486	-839.15949	-138.15337	75.89186	-790.82194	-207.72549	285.37422	-413.14183	-251.32165	407.96425	-378.15284	-279.77246	297.16050	-373.69616	-255.92150	428.64734	-858.27792	-278.83142	309.32949	-862.60557	-498.89234	574.83723	-425.43490	-391.87617	564.11341	-431.89498	-371.29482	511.01271	-392.09462	-510.50418	465.17891	-395.62978	-393.37909	459.13632	-402.18749	-469.79988	582.64756	-797.52377	-331.03340	578.49211	-795.69489	-478.96167	488.49139	-850.81638	-345.41587	477.97217	-837.70481	-487.11055	580.30778	-490.30344	-668.91158	648.63270	-574.89753	-490.42413	586.64794	-748.07252	-665.88563	650.32182	-667.15462	-415.66076	1030.05031	-603.62386	-343.63121	995.84091	-447.35077	-322.93506	984.15315	-741.20417	-313.51089	922.21264	-572.75361	-312.04530	924.17985	-619.12244	-351.24186	870.56914	-377.20302	-480.26630	696.61870	-398.98976	-475.91205	710.26340	-325.23470	-378.57799	719.48151	-327.68612	-233.12053	739.03241	-392.04931	-234.26070	693.29924	-373.75358	-330.55504	852.61328	-815.41635	-444.98971	685.52003	-793.46219	-427.50085	697.12831	-876.87205	-351.84716	714.43016	-873.15019	-203.93139	749.27678	-811.34130	-202.72946	702.00026	-829.59337	-579.38162	509.10914	-520.39398	-577.48964	513.58607	-709.89489	-574.06938	517.77411	-530.72638	-568.49023	520.88715	-700.79900	
